<svg width="190" height="165" viewBox="0 0 190 165" fill="none" xmlns="http://www.w3.org/2000/svg">
<path fill-rule="evenodd" clip-rule="evenodd" d="M121.677 50.0322C112.271 50.0322 104.645 57.6578 104.645 67.0645C104.645 76.4711 112.271 84.0968 121.677 84.0968C131.084 84.0968 138.71 76.4711 138.71 67.0645C138.71 57.6578 131.084 50.0322 121.677 50.0322ZM102.516 67.0645C102.516 56.482 111.095 47.9032 121.677 47.9032C132.26 47.9032 140.839 56.482 140.839 67.0645C140.839 77.647 132.26 86.2258 121.677 86.2258C111.095 86.2258 102.516 77.647 102.516 67.0645Z" fill="#845EF7"/>
<path fill-rule="evenodd" clip-rule="evenodd" d="M122.21 2.13463C119.285 2.13463 116.479 3.29661 114.411 5.36494C112.343 7.43327 111.181 10.2385 111.181 13.1636V14.1918L111.181 14.196C111.172 16.3504 110.534 18.4552 109.344 20.2514C108.155 22.0476 106.466 23.4568 104.486 24.3055C104.353 24.3624 104.21 24.3918 104.065 24.3918H103.8C101.837 25.2098 99.6773 25.4442 97.5811 25.0641C95.4093 24.6704 93.4053 23.635 91.8274 22.0915L91.819 22.0833L91.4561 21.7204C90.4318 20.6949 89.215 19.881 87.8762 19.326C86.5373 18.771 85.1021 18.4853 83.6527 18.4853C82.2033 18.4853 80.7682 18.771 79.4293 19.326C78.0904 19.881 76.874 20.6945 75.8497 21.72L75.8489 21.7208C74.8235 22.7451 74.01 23.9615 73.455 25.3004C72.8999 26.6392 72.6143 28.0744 72.6143 29.5238C72.6143 30.9732 72.8999 32.4083 73.455 33.7472C74.01 35.0861 74.8235 36.3025 75.8489 37.3268L76.2205 37.6984C77.764 39.2763 78.7993 41.2804 79.1931 43.4522C79.5849 45.6129 79.3237 47.8412 78.4434 49.8524C77.676 51.9194 76.3075 53.7098 74.5138 54.9927C72.7108 56.2823 70.5617 56.9995 68.3457 57.0514L68.3207 57.0517H67.7764C64.8513 57.0517 62.0461 58.2136 59.9777 60.282C57.9094 62.3503 56.7474 65.1556 56.7474 68.0806C56.7474 71.0057 57.9094 73.8109 59.9777 75.8793C62.0461 77.9476 64.8513 79.1096 67.7764 79.1096H68.8088C70.9632 79.1182 73.068 79.7565 74.8642 80.9461C76.6588 82.1346 78.0671 83.8215 78.916 85.7994C79.8054 87.8173 80.0704 90.0553 79.6769 92.2252C79.2832 94.397 78.2478 96.4011 76.7043 97.979L76.6961 97.9874L76.3332 98.3502C75.3077 99.3745 74.4938 100.591 73.9388 101.93C73.3838 103.269 73.0981 104.704 73.0981 106.154C73.0981 107.603 73.3838 109.038 73.9388 110.377C74.4938 111.716 75.3073 112.932 76.3328 113.957L76.3336 113.957C77.3579 114.983 78.5743 115.796 79.9131 116.351C81.252 116.906 82.6872 117.192 84.1366 117.192C85.5859 117.192 87.0211 116.906 88.36 116.351C89.6989 115.796 90.9153 114.983 91.9396 113.957L92.3112 113.586C93.8891 112.042 95.8932 111.007 98.065 110.613C100.226 110.221 102.454 110.483 104.465 111.363C106.532 112.13 108.323 113.499 109.606 115.293C110.895 117.096 111.612 119.245 111.664 121.461L111.664 121.486V122.03C111.664 124.955 112.826 127.76 114.895 129.829C116.963 131.897 119.768 133.059 122.693 133.059C125.618 133.059 128.424 131.897 130.492 129.829C132.56 127.76 133.722 124.955 133.722 122.03V121.002L133.722 120.998C133.731 118.843 134.369 116.738 135.559 114.942C136.747 113.148 138.434 111.739 140.412 110.891C142.43 110.001 144.668 109.736 146.838 110.129C149.01 110.523 151.014 111.559 152.592 113.102L152.6 113.11L152.963 113.473C153.987 114.499 155.204 115.312 156.543 115.868C157.882 116.423 159.317 116.708 160.766 116.708C162.216 116.708 163.651 116.423 164.99 115.868C166.329 115.312 167.545 114.499 168.569 113.474L168.57 113.473C169.596 112.448 170.409 111.232 170.964 109.893C171.519 108.554 171.805 107.119 171.805 105.67C171.805 104.22 171.519 102.785 170.964 101.446C170.409 100.107 169.596 98.8911 168.57 97.8668L168.199 97.4951C166.655 95.9173 165.62 93.9132 165.226 91.7414C164.833 89.5712 165.098 87.3331 165.987 85.315C166.836 83.3373 168.244 81.6506 170.039 80.4622C171.835 79.2727 173.94 78.6343 176.094 78.6257L176.098 78.6257L176.643 78.6257C179.568 78.6257 182.373 77.4637 184.441 75.3954C186.51 73.3271 187.672 70.5218 187.672 67.5968C187.672 64.6717 186.51 61.8665 184.441 59.7981C182.373 57.7298 179.568 56.5678 176.643 56.5678H175.615L175.61 56.5678C173.456 56.5592 171.351 55.9209 169.555 54.7313C167.759 53.5418 166.35 51.853 165.501 49.8728C165.444 49.74 165.415 49.5969 165.415 49.4524V49.1876C164.597 47.2242 164.362 45.0645 164.742 42.9683C165.136 40.7965 166.171 38.7925 167.715 37.2146L167.723 37.2062L168.086 36.8433C169.111 35.819 169.925 34.6022 170.48 33.2634C171.035 31.9245 171.321 30.4893 171.321 29.0399C171.321 27.5906 171.035 26.1554 170.48 24.8165C169.925 23.4776 169.112 22.2612 168.086 21.2369L168.086 21.2361C167.061 20.2107 165.845 19.3972 164.506 18.8422C163.167 18.2871 161.732 18.0015 160.283 18.0015C158.833 18.0015 157.398 18.2871 156.059 18.8422C154.72 19.3972 153.504 20.2107 152.48 21.2361L152.108 21.6077C150.53 23.1512 148.526 24.1865 146.354 24.5803C144.184 24.9737 141.946 24.7087 139.928 23.8194C137.95 22.9705 136.263 21.5622 135.075 19.7676C133.885 17.9714 133.247 15.8665 133.239 13.7122L133.239 13.7079V13.1636C133.239 10.2385 132.077 7.43327 130.008 5.36494C127.94 3.29661 125.135 2.13463 122.21 2.13463ZM112.902 3.85552C115.37 1.38687 118.718 0 122.21 0C125.701 0 129.049 1.38687 131.518 3.85552C133.986 6.32417 135.373 9.67238 135.373 13.1636L135.373 13.7037C135.373 13.7043 135.373 13.705 135.373 13.7056C135.38 15.443 135.895 17.1404 136.855 18.5889C137.814 20.038 139.177 21.1749 140.774 21.8596L140.785 21.8641C142.414 22.5831 144.221 22.7976 145.973 22.4799C147.724 22.1625 149.339 21.3287 150.611 20.0856C150.613 20.0843 150.614 20.083 150.615 20.0817L150.969 19.7275C150.969 19.7277 150.969 19.7274 150.969 19.7275C152.192 18.5038 153.644 17.5326 155.242 16.8703C156.84 16.2078 158.553 15.8668 160.283 15.8668C162.012 15.8668 163.725 16.2078 165.323 16.8703C166.921 17.5325 168.373 18.5032 169.595 19.7267C170.819 20.9492 171.79 22.401 172.452 23.9991C173.115 25.5971 173.456 27.31 173.456 29.0399C173.456 30.7698 173.115 32.4828 172.452 34.0808C171.79 35.6788 170.819 37.1306 169.595 38.3532L169.241 38.7073C169.239 38.7087 169.238 38.71 169.237 38.7114C167.994 39.9838 167.16 41.5989 166.843 43.3492C166.525 45.1013 166.739 46.9085 167.458 48.5376C167.518 48.6733 167.549 48.8201 167.549 48.9685V49.2268C168.241 50.7403 169.344 52.0312 170.734 52.9516C172.182 53.9109 173.879 54.4259 175.617 54.4332H176.643C180.134 54.4332 183.482 55.8201 185.951 58.2887C188.419 60.7574 189.806 64.1056 189.806 67.5968C189.806 71.088 188.419 74.4362 185.951 76.9048C183.482 79.3735 180.134 80.7604 176.643 80.7604L176.103 80.7603C176.102 80.7603 176.101 80.7604 176.101 80.7604C174.363 80.7677 172.666 81.2826 171.217 82.242C169.768 83.2016 168.631 84.5641 167.947 86.1616L167.942 86.1721C167.223 87.8012 167.009 89.6084 167.326 91.3605C167.644 93.1107 168.478 94.7258 169.72 95.9981C169.722 95.9995 169.723 96.001 169.725 96.0024L170.079 96.3565C170.079 96.3564 170.079 96.3567 170.079 96.3565C171.303 97.579 172.274 99.0311 172.936 100.629C173.599 102.227 173.94 103.94 173.94 105.67C173.94 107.4 173.599 109.113 172.936 110.711C172.274 112.308 171.303 113.76 170.079 114.983C168.857 116.206 167.405 117.177 165.807 117.839C164.209 118.502 162.496 118.843 160.766 118.843C159.036 118.843 157.324 118.502 155.726 117.839C154.128 117.177 152.676 116.206 151.454 114.983C151.453 114.982 151.454 114.983 151.454 114.983L151.099 114.628C151.098 114.627 151.096 114.625 151.095 114.624C149.822 113.381 148.207 112.547 146.457 112.23C144.705 111.912 142.898 112.127 141.269 112.846L141.258 112.85C139.661 113.535 138.298 114.672 137.339 116.121C136.379 117.569 135.864 119.267 135.857 121.004C135.857 121.005 135.857 121.005 135.857 121.006L135.857 122.03C135.857 125.521 134.47 128.869 132.001 131.338C129.533 133.807 126.185 135.194 122.693 135.194C119.202 135.194 115.854 133.807 113.385 131.338C110.917 128.869 109.53 125.521 109.53 122.03V121.498C109.486 119.715 108.907 117.986 107.869 116.534C106.829 115.08 105.375 113.972 103.697 113.355C103.685 113.35 103.674 113.346 103.663 113.342C103.653 113.338 103.644 113.334 103.634 113.329C102.005 112.61 100.198 112.396 98.4458 112.714C96.6956 113.031 95.0804 113.865 93.8081 115.108C93.8067 115.109 93.8053 115.11 93.8039 115.112L93.4498 115.466C92.2273 116.69 90.7755 117.661 89.1774 118.323C87.5794 118.986 85.8665 119.327 84.1366 119.327C82.4067 119.327 80.6937 118.986 79.0957 118.323C77.4977 117.661 76.0459 116.69 74.8233 115.466C73.5998 114.244 72.6292 112.792 71.9669 111.194C71.3044 109.596 70.9635 107.884 70.9635 106.154C70.9635 104.424 71.3044 102.711 71.9669 101.113C72.6293 99.5149 73.6001 98.0632 74.8238 96.8408C74.8236 96.8409 74.8239 96.8407 74.8238 96.8408L75.1784 96.4863C75.1797 96.4849 75.181 96.4836 75.1824 96.4822C76.4253 95.2099 77.2592 93.5946 77.5766 91.8444C77.8943 90.0922 77.6798 88.2851 76.9608 86.656L76.9562 86.6455C76.2715 85.048 75.1347 83.6855 73.6856 82.7258C72.237 81.7665 70.5397 81.2515 68.8023 81.2442C68.8016 81.2442 68.801 81.2442 68.8003 81.2442L67.7764 81.2442C64.2852 81.2442 60.937 79.8573 58.4683 77.3887C55.9997 74.92 54.6128 71.5718 54.6128 68.0806C54.6128 64.5894 55.9997 61.2412 58.4683 58.7726C60.937 56.3039 64.2852 54.917 67.7764 54.917H68.3079C70.0914 54.8729 71.8207 54.2945 73.2719 53.2565C74.7265 52.2162 75.8344 50.7623 76.4517 49.084C76.4594 49.0629 76.4679 49.042 76.4769 49.0214C77.1959 47.3923 77.4104 45.5852 77.0927 43.833C76.7753 42.0828 75.9415 40.4675 74.6985 39.1952L74.3403 38.837C73.1164 37.6145 72.1455 36.1627 71.483 34.5646C70.8206 32.9666 70.4796 31.2537 70.4796 29.5238C70.4796 27.7939 70.8206 26.0809 71.483 24.4829C72.1455 22.8849 73.1164 21.4331 74.3403 20.2105C75.5627 18.987 77.0142 18.0164 78.6119 17.3541C80.2099 16.6917 81.9228 16.3507 83.6527 16.3507C85.3826 16.3507 87.0956 16.6917 88.6936 17.3541C90.2914 18.0165 91.7431 18.9873 92.9655 20.211C92.9654 20.2108 92.9657 20.2111 92.9655 20.211L93.3242 20.5697C94.5966 21.8126 96.2117 22.6464 97.962 22.9638C99.7141 23.2815 101.521 23.067 103.15 22.348C103.286 22.2881 103.433 22.2571 103.581 22.2571H103.84C105.353 21.5652 106.644 20.4626 107.564 19.0728C108.524 17.6242 109.039 15.9269 109.046 14.1895V13.1636C109.046 9.67238 110.433 6.32417 112.902 3.85552Z" fill="#845EF7"/>
<path fill-rule="evenodd" clip-rule="evenodd" d="M40.2139 97.5279C36.3563 96.1239 32.0909 98.1129 30.6869 101.97C29.2828 105.828 31.2718 110.093 35.1294 111.498C38.987 112.902 43.2524 110.913 44.6565 107.055C46.0605 103.197 44.0715 98.932 40.2139 97.5279ZM29.8138 101.653C31.3933 97.3129 36.1919 95.0753 40.5317 96.6548C44.8715 98.2344 47.1091 103.033 45.5296 107.373C43.95 111.713 39.1514 113.95 34.8116 112.371C30.4718 110.791 28.2342 105.993 29.8138 101.653Z" fill="#845EF7" stroke="#845EF7" stroke-linecap="round" stroke-linejoin="round"/>
<path fill-rule="evenodd" clip-rule="evenodd" d="M47.5815 77.965C46.382 77.5284 45.0581 77.5862 43.9012 78.1257C42.7443 78.6652 41.849 79.6421 41.4124 80.8417L41.259 81.2633L41.2583 81.2651C40.9332 82.1473 40.3573 82.9152 39.6014 83.4742C38.8454 84.0333 37.9425 84.3591 37.0038 84.4116C36.9408 84.4151 36.8778 84.4058 36.8185 84.3842L36.7099 84.3447C35.7826 84.3871 34.862 84.1609 34.0591 83.6921C33.2272 83.2065 32.5599 82.4828 32.1432 81.6143L32.141 81.6096L32.0464 81.4067C31.7794 80.8332 31.4018 80.3178 30.9356 79.8904C30.4694 79.4629 29.9235 79.1316 29.3291 78.9152C28.7347 78.6989 28.1035 78.6018 27.4716 78.6296C26.8397 78.6574 26.2195 78.8094 25.6464 79.0771L25.6459 79.0773C25.0725 79.3443 24.5573 79.7217 24.1299 80.1879C23.7024 80.6541 23.371 81.2 23.1547 81.7944C22.9384 82.3888 22.8413 83.02 22.8691 83.6519C22.8968 84.2838 23.0489 84.904 23.3165 85.4772L23.4135 85.685C23.8109 86.5625 23.9363 87.5389 23.7737 88.4883C23.6118 89.4329 23.1721 90.3077 22.5109 91.0011C21.8877 91.7342 21.0592 92.2642 20.1321 92.5226C19.2003 92.7823 18.2119 92.7556 17.2954 92.4461L17.2851 92.4425L17.0619 92.3613C15.8623 91.9247 14.5385 91.9825 13.3815 92.522C12.2246 93.0615 11.3294 94.0384 10.8928 95.238C10.4562 96.4375 10.514 97.7614 11.0535 98.9183C11.593 100.075 12.5699 100.97 13.7695 101.407L14.1929 101.561C15.0751 101.886 15.843 102.462 16.402 103.218C16.9606 103.973 17.2863 104.875 17.3392 105.813C17.4027 106.774 17.1774 107.731 16.6921 108.562C16.2065 109.394 15.4828 110.061 14.6143 110.478L14.6097 110.48L14.4067 110.575C13.8333 110.842 13.3179 111.219 12.8904 111.685C12.4629 112.152 12.1316 112.698 11.9152 113.292C11.6989 113.886 11.6018 114.518 11.6296 115.149C11.6574 115.781 11.8094 116.402 12.0771 116.975L12.0773 116.975C12.3443 117.549 12.7217 118.064 13.1879 118.491C13.6541 118.919 14.2 119.25 14.7944 119.466C15.3888 119.683 16.02 119.78 16.6519 119.752C17.2838 119.724 17.9041 119.572 18.4772 119.305L18.685 119.208C19.5625 118.81 20.5389 118.685 21.4883 118.847C22.4329 119.009 23.3077 119.449 24.0011 120.11C24.7342 120.733 25.2642 121.562 25.5226 122.489C25.7823 123.421 25.7557 124.409 25.4461 125.326L25.4425 125.336L25.3613 125.559C24.9247 126.759 24.9825 128.083 25.522 129.24C26.0615 130.396 27.0384 131.292 28.238 131.728C29.4375 132.165 30.7614 132.107 31.9183 131.568C33.0752 131.028 33.9705 130.051 34.4071 128.852L34.5605 128.43L34.5612 128.428C34.8863 127.546 35.4622 126.778 36.2181 126.219C36.9733 125.661 37.8752 125.335 38.813 125.282C39.7733 125.218 40.7308 125.444 41.562 125.929C42.3939 126.415 43.0612 127.138 43.4779 128.007L43.4801 128.011L43.5747 128.214C43.8417 128.788 44.2192 129.303 44.6854 129.731C45.1517 130.158 45.6976 130.489 46.292 130.706C46.8863 130.922 47.5175 131.019 48.1494 130.991C48.7814 130.964 49.4016 130.812 49.9747 130.544L49.9752 130.544C50.5486 130.277 51.0638 129.899 51.4912 129.433C51.9187 128.967 52.25 128.421 52.4664 127.827C52.6827 127.232 52.7798 126.601 52.752 125.969C52.7242 125.337 52.5722 124.717 52.3046 124.144L52.2076 123.936C51.8102 123.059 51.6847 122.082 51.8474 121.133C52.01 120.184 52.4528 119.306 53.1188 118.611C53.7621 117.927 54.5913 117.445 55.5046 117.226C56.4188 117.006 57.3772 117.058 58.262 117.376L58.2638 117.377L58.487 117.458C59.6865 117.895 61.0104 117.837 62.1673 117.298C63.3242 116.758 64.2195 115.781 64.6561 114.582C65.0927 113.382 65.0349 112.058 64.4954 110.901C63.9559 109.744 62.9789 108.849 61.7794 108.412L61.3577 108.259L61.356 108.258C60.4738 107.933 59.7059 107.357 59.1468 106.601C58.5878 105.845 58.262 104.943 58.2095 104.004C58.206 103.941 58.2153 103.878 58.2368 103.818L58.2764 103.71C58.234 102.783 58.4602 101.862 58.9289 101.059C59.4146 100.227 60.1383 99.5599 61.0068 99.1432L61.0114 99.141L61.2144 99.0463C61.7878 98.7793 62.3032 98.4018 62.7307 97.9356C63.1581 97.4694 63.4895 96.9235 63.7058 96.3291C63.9222 95.7347 64.0192 95.1035 63.9915 94.4716C63.9637 93.8397 63.8116 93.2195 63.544 92.6463L63.5438 92.6459C63.2768 92.0725 62.8994 91.5573 62.4332 91.1299C61.9669 90.7024 61.421 90.371 60.8267 90.1547C60.2323 89.9384 59.6011 89.8413 58.9692 89.8691C58.3373 89.8968 57.717 90.0489 57.1439 90.3165L56.936 90.4134C56.0586 90.8109 55.0822 90.9363 54.1328 90.7736C53.1842 90.6111 52.3059 90.1684 51.6111 89.5025C50.9267 88.8591 50.4451 88.0298 50.2256 87.1164C50.0059 86.2023 50.0583 85.2438 50.3763 84.3591L50.377 84.3573L50.4582 84.1341C50.8948 82.9345 50.837 81.6107 50.2975 80.4538C49.758 79.2968 48.7811 78.4016 47.5815 77.965ZM43.5075 77.2814C44.8883 76.6375 46.4684 76.5685 47.9001 77.0896C49.3318 77.6107 50.4979 78.6792 51.1418 80.0601C51.7857 81.4409 51.8547 83.021 51.3336 84.4527L51.253 84.6742C51.2529 84.6744 51.2528 84.6747 51.2527 84.675C50.9964 85.3886 50.9542 86.1615 51.1314 86.8987C51.3087 87.6362 51.6977 88.3058 52.2506 88.8251L52.2543 88.8285C52.815 89.3665 53.5241 89.7242 54.2901 89.8555C55.0552 89.9866 55.8421 89.8857 56.5494 89.5658C56.5502 89.5655 56.5509 89.5652 56.5516 89.5648L56.7497 89.4724C56.7497 89.4725 56.7498 89.4724 56.7497 89.4724C57.4337 89.1531 58.1741 88.9715 58.9283 88.9384C59.6825 88.9052 60.4359 89.0211 61.1453 89.2793C61.8547 89.5375 62.5063 89.933 63.0627 90.4432C63.6191 90.9533 64.0694 91.568 64.3881 92.2522C64.7075 92.9362 64.889 93.6765 64.9221 94.4307C64.9553 95.1849 64.8394 95.9383 64.5812 96.6477C64.323 97.3571 63.9275 98.0087 63.4173 98.5652C62.9071 99.1216 62.2923 99.5721 61.6079 99.8908L61.4098 99.9831C61.409 99.9835 61.4082 99.9838 61.4075 99.9842C60.7078 100.32 60.1248 100.858 59.7334 101.529C59.3416 102.2 59.1598 102.973 59.2115 103.748C59.2158 103.813 59.2066 103.878 59.1845 103.939L59.1459 104.045C59.2038 104.769 59.4633 105.463 59.8958 106.047C60.3467 106.657 60.9659 107.122 61.6773 107.384L62.098 107.537C63.5297 108.058 64.6958 109.127 65.3397 110.507C65.9836 111.888 66.0526 113.468 65.5315 114.9C65.0104 116.332 63.9419 117.498 62.561 118.142C61.1802 118.786 59.6001 118.855 58.1684 118.334L57.9469 118.253C57.9466 118.253 57.9463 118.253 57.9461 118.253C57.2325 117.996 56.4596 117.954 55.7223 118.131C54.9848 118.309 54.3152 118.698 53.796 119.251L53.7926 119.254C53.2546 119.815 52.8968 120.524 52.7656 121.29C52.6345 122.055 52.7354 122.842 53.0551 123.549C53.0555 123.55 53.0559 123.551 53.0562 123.552L53.1486 123.75C53.1486 123.75 53.1487 123.75 53.1486 123.75C53.468 124.434 53.6495 125.174 53.6827 125.928C53.7158 126.682 53.6 127.436 53.3418 128.145C53.0836 128.855 52.6881 129.506 52.1779 130.063C51.6677 130.619 51.053 131.07 50.3687 131.388C49.6847 131.708 48.9445 131.889 48.1903 131.922C47.4361 131.955 46.6828 131.839 45.9733 131.581C45.2639 131.323 44.6124 130.928 44.0559 130.417C43.4995 129.907 43.0491 129.292 42.7304 128.608C42.7304 128.608 42.7305 128.608 42.7304 128.608L42.638 128.41C42.6376 128.409 42.6372 128.408 42.6368 128.407C42.3006 127.708 41.7627 127.125 41.0923 126.733C40.4212 126.342 39.6481 126.16 38.8727 126.212L38.8677 126.212C38.1104 126.254 37.3819 126.517 36.7721 126.968C36.1625 127.419 35.6979 128.038 35.4356 128.749C35.4355 128.75 35.4354 128.75 35.4353 128.75L35.2825 129.17C34.7614 130.602 33.6929 131.768 32.312 132.412C30.9312 133.056 29.3511 133.125 27.9194 132.604C26.4876 132.083 25.3216 131.014 24.6777 129.633C24.0338 128.252 23.9648 126.672 24.4859 125.241L24.5652 125.023C24.8133 124.285 24.8342 123.489 24.6252 122.739C24.4157 121.987 23.9848 121.316 23.3887 120.812C23.3846 120.809 23.3807 120.805 23.3768 120.802C23.3734 120.799 23.3701 120.796 23.3668 120.793C22.806 120.255 22.097 119.897 21.331 119.766C20.5659 119.634 19.779 119.735 19.0717 120.055C19.071 120.056 19.0702 120.056 19.0694 120.056L18.8713 120.149C18.1873 120.468 17.447 120.65 16.6928 120.683C15.9386 120.716 15.1852 120.6 14.4758 120.342C13.7664 120.084 13.1148 119.688 12.5583 119.178C12.0019 118.668 11.5514 118.053 11.2328 117.368C10.9135 116.685 10.7321 115.944 10.6989 115.19C10.6658 114.436 10.7816 113.683 11.0398 112.973C11.2981 112.264 11.6936 111.612 12.2037 111.056C12.7139 110.499 13.3287 110.049 14.013 109.73C14.0129 109.73 14.013 109.73 14.013 109.73L14.2113 109.638C14.2121 109.638 14.2128 109.637 14.2135 109.637C14.9132 109.301 15.4962 108.763 15.8876 108.092C16.2795 107.421 16.4612 106.648 16.4095 105.873L16.4092 105.868C16.3669 105.11 16.1041 104.382 15.653 103.772C15.2022 103.162 14.583 102.698 13.8716 102.436C13.8713 102.435 13.871 102.435 13.8708 102.435L13.4509 102.282C12.0191 101.761 10.8531 100.693 10.2092 99.312C9.56527 97.9311 9.49628 96.3511 10.0174 94.9194C10.5385 93.4876 11.607 92.3216 12.9878 91.6777C14.3687 91.0338 15.9488 90.9648 17.3805 91.4859L17.5985 91.5652C18.3365 91.8133 19.132 91.8342 19.882 91.6252C20.6338 91.4157 21.3052 90.9848 21.8088 90.3887C21.8151 90.3812 21.8217 90.3739 21.8285 90.3668C22.3665 89.806 22.7242 89.0969 22.8555 88.331C22.9866 87.5658 22.8857 86.779 22.5659 86.0717L22.4724 85.8713C22.153 85.1873 21.9715 84.447 21.9384 83.6928C21.9053 82.9386 22.0211 82.1852 22.2793 81.4758C22.5375 80.7664 22.933 80.1148 23.4432 79.5583C23.9534 79.0019 24.5683 78.5514 25.2527 78.2328C25.9366 77.9135 26.6767 77.7321 27.4307 77.6989C28.185 77.6658 28.9383 77.7816 29.6477 78.0398C30.3571 78.298 31.0087 78.6935 31.5652 79.2037C32.1216 79.7139 32.572 80.3287 32.8907 81.013C32.8906 81.0129 32.8907 81.013 32.8907 81.013L32.9842 81.2136C33.3205 81.9132 33.8584 82.4962 34.5288 82.8876C35.1999 83.2794 35.973 83.4612 36.7484 83.4095C36.813 83.4052 36.8778 83.4144 36.9387 83.4366L37.0446 83.4751C37.7686 83.4173 38.4625 83.1578 39.0474 82.7252C39.657 82.2744 40.1216 81.6552 40.3839 80.9438L40.537 80.5231C41.0581 79.0914 42.1266 77.9253 43.5075 77.2814Z" fill="#845EF7"/>
<path d="M56.7497 89.4724L56.5517 89.5648C56.5509 89.5652 56.5502 89.5655 56.5494 89.5658C55.8421 89.8857 55.0552 89.9866 54.2901 89.8555C53.5241 89.7242 52.815 89.3665 52.2543 88.8285L52.2506 88.8251C51.6977 88.3058 51.3087 87.6362 51.1314 86.8987C50.9542 86.1615 50.9964 85.3886 51.2527 84.675C51.2528 84.6747 51.2529 84.6744 51.253 84.6742L51.3336 84.4527C51.8547 83.021 51.7857 81.4409 51.1418 80.0601C50.4979 78.6792 49.3318 77.6107 47.9001 77.0896C46.4684 76.5685 44.8883 76.6375 43.5075 77.2814C42.1266 77.9253 41.0581 79.0914 40.537 80.5231L40.3839 80.9438C40.1216 81.6552 39.657 82.2744 39.0474 82.7252C38.4625 83.1578 37.7686 83.4173 37.0446 83.4751L36.9387 83.4366C36.8778 83.4144 36.813 83.4052 36.7484 83.4095C35.973 83.4612 35.1999 83.2794 34.5288 82.8876C33.8584 82.4962 33.3205 81.9132 32.9842 81.2136L32.8907 81.013M56.7497 89.4724C56.7497 89.4725 56.7498 89.4724 56.7497 89.4724ZM56.7497 89.4724C57.4337 89.1531 58.1741 88.9715 58.9283 88.9384C59.6825 88.9052 60.4359 89.0211 61.1453 89.2793C61.8547 89.5375 62.5063 89.933 63.0627 90.4432C63.6191 90.9533 64.0694 91.568 64.3881 92.2522C64.7075 92.9362 64.889 93.6765 64.9221 94.4307C64.9553 95.1849 64.8394 95.9383 64.5812 96.6477C64.323 97.3571 63.9275 98.0087 63.4173 98.5652C62.9071 99.1216 62.2923 99.5721 61.6079 99.8908L61.4098 99.9831C61.409 99.9835 61.4082 99.9838 61.4075 99.9842C60.7078 100.32 60.1248 100.858 59.7334 101.529C59.3416 102.2 59.1598 102.973 59.2115 103.748C59.2158 103.813 59.2066 103.878 59.1845 103.939L59.1459 104.045C59.2038 104.769 59.4633 105.463 59.8958 106.047C60.3467 106.657 60.9659 107.122 61.6773 107.384L62.098 107.537C63.5297 108.058 64.6958 109.127 65.3397 110.507C65.9836 111.888 66.0526 113.468 65.5315 114.9C65.0104 116.332 63.9419 117.498 62.561 118.142C61.1802 118.786 59.6001 118.855 58.1684 118.334L57.9469 118.253C57.9466 118.253 57.9463 118.253 57.9461 118.253C57.2325 117.996 56.4596 117.954 55.7223 118.131C54.9848 118.309 54.3152 118.698 53.796 119.251L53.7926 119.254C53.2546 119.815 52.8969 120.524 52.7656 121.29C52.6345 122.055 52.7354 122.842 53.0551 123.549C53.0555 123.55 53.0559 123.551 53.0562 123.552L53.1486 123.75M53.1486 123.75C53.1486 123.75 53.1487 123.75 53.1486 123.75ZM53.1486 123.75C53.468 124.434 53.6495 125.174 53.6827 125.928C53.7158 126.682 53.6 127.436 53.3418 128.145C53.0836 128.855 52.6881 129.506 52.1779 130.063C51.6677 130.619 51.053 131.07 50.3687 131.388M50.3687 131.388C49.6847 131.708 48.9445 131.889 48.1903 131.922C47.4361 131.955 46.6828 131.839 45.9733 131.581C45.2639 131.323 44.6124 130.928 44.0559 130.417C43.4995 129.907 43.0491 129.292 42.7304 128.608M50.3687 131.388C50.3687 131.388 50.3686 131.388 50.3687 131.388ZM50.3687 131.388L50.1718 130.966M42.7304 128.608C42.7305 128.608 42.7304 128.608 42.7304 128.608ZM42.7304 128.608L42.638 128.41C42.6376 128.409 42.6372 128.408 42.6368 128.407C42.3006 127.708 41.7627 127.125 41.0923 126.733C40.4212 126.342 39.6481 126.16 38.8727 126.212L38.8677 126.212C38.1104 126.254 37.3819 126.517 36.7721 126.968C36.1625 127.419 35.6979 128.038 35.4356 128.749C35.4355 128.75 35.4354 128.75 35.4353 128.75L35.2825 129.17C34.7614 130.602 33.6929 131.768 32.312 132.412C30.9312 133.056 29.3511 133.125 27.9194 132.604C26.4877 132.083 25.3216 131.014 24.6777 129.633C24.0338 128.252 23.9648 126.672 24.4859 125.241L24.5652 125.023C24.8133 124.285 24.8342 123.489 24.6252 122.739C24.4157 121.987 23.9848 121.316 23.3887 120.812C23.3847 120.809 23.3807 120.805 23.3768 120.802C23.3734 120.799 23.3701 120.796 23.3668 120.793C22.806 120.255 22.097 119.897 21.331 119.766C20.5659 119.634 19.779 119.735 19.0717 120.055C19.071 120.056 19.0702 120.056 19.0694 120.056L18.8713 120.149C18.1873 120.468 17.447 120.65 16.6928 120.683C15.9386 120.716 15.1852 120.6 14.4758 120.342C13.7664 120.084 13.1148 119.688 12.5583 119.178C12.0019 118.668 11.5514 118.053 11.2328 117.368C10.9135 116.684 10.7321 115.944 10.6989 115.19C10.6658 114.436 10.7816 113.683 11.0398 112.973C11.2981 112.264 11.6936 111.612 12.2037 111.056C12.7139 110.499 13.3287 110.049 14.013 109.73M14.013 109.73C14.0129 109.73 14.013 109.73 14.013 109.73ZM14.013 109.73L14.2113 109.638C14.2121 109.638 14.2128 109.637 14.2135 109.637C14.9132 109.301 15.4962 108.763 15.8876 108.092C16.2795 107.421 16.4612 106.648 16.4095 105.873L16.4092 105.868C16.3669 105.11 16.1041 104.382 15.653 103.772C15.2022 103.162 14.583 102.698 13.8716 102.436C13.8713 102.435 13.871 102.435 13.8708 102.435L13.4509 102.282C12.0191 101.761 10.8531 100.693 10.2092 99.312C9.56527 97.9311 9.49628 96.3511 10.0174 94.9194C10.5385 93.4876 11.607 92.3216 12.9878 91.6777C14.3687 91.0338 15.9488 90.9648 17.3805 91.4859L17.5985 91.5652C18.3365 91.8133 19.132 91.8342 19.882 91.6252C20.6338 91.4157 21.3052 90.9848 21.8088 90.3887C21.8151 90.3812 21.8217 90.3739 21.8285 90.3668C22.3665 89.806 22.7242 89.0969 22.8555 88.331C22.9866 87.5658 22.8857 86.779 22.5659 86.0717L22.4724 85.8713C22.153 85.1873 21.9715 84.447 21.9384 83.6928C21.9053 82.9386 22.0211 82.1852 22.2793 81.4758C22.5375 80.7664 22.933 80.1148 23.4432 79.5583C23.9534 79.0019 24.5683 78.5514 25.2527 78.2328C25.9366 77.9135 26.6767 77.7321 27.4307 77.6989C28.185 77.6658 28.9383 77.7816 29.6477 78.0398C30.3571 78.298 31.0087 78.6935 31.5652 79.2037C32.1216 79.7139 32.572 80.3287 32.8907 81.013M32.8907 81.013C32.8906 81.0129 32.8907 81.013 32.8907 81.013ZM43.9012 78.1257C45.0581 77.5862 46.382 77.5284 47.5815 77.965C48.7811 78.4016 49.758 79.2968 50.2975 80.4538C50.837 81.6107 50.8948 82.9345 50.4582 84.1341L50.377 84.3573L50.3763 84.3591C50.0583 85.2438 50.0059 86.2023 50.2256 87.1164C50.4451 88.0298 50.9267 88.8591 51.6111 89.5025C52.3059 90.1684 53.1842 90.6111 54.1328 90.7736C55.0822 90.9363 56.0586 90.8109 56.936 90.4134L57.1439 90.3165C57.717 90.0489 58.3373 89.8968 58.9692 89.8691C59.6011 89.8413 60.2323 89.9384 60.8267 90.1547C61.421 90.371 61.9669 90.7024 62.4332 91.1299C62.8994 91.5573 63.2768 92.0725 63.5438 92.6459L63.544 92.6463C63.8116 93.2195 63.9637 93.8397 63.9915 94.4716C64.0192 95.1035 63.9222 95.7347 63.7058 96.3291C63.4895 96.9235 63.1581 97.4694 62.7307 97.9356C62.3032 98.4018 61.7878 98.7793 61.2144 99.0463L61.0114 99.141L61.0068 99.1432C60.1383 99.5599 59.4146 100.227 58.9289 101.059C58.4602 101.862 58.234 102.783 58.2764 103.71L58.2368 103.818C58.2153 103.878 58.206 103.941 58.2095 104.004C58.262 104.943 58.5878 105.845 59.1468 106.601C59.7059 107.357 60.4738 107.933 61.356 108.258L61.3577 108.259L61.7794 108.412C62.9789 108.849 63.9559 109.744 64.4954 110.901C65.0349 112.058 65.0927 113.382 64.6561 114.582C64.2195 115.781 63.3242 116.758 62.1673 117.298C61.0104 117.837 59.6865 117.895 58.487 117.458L58.2638 117.377L58.262 117.376C57.3772 117.058 56.4188 117.006 55.5046 117.226C54.5913 117.445 53.7621 117.927 53.1188 118.611C52.4528 119.306 52.01 120.184 51.8474 121.133C51.6847 122.082 51.8102 123.059 52.2076 123.936L52.3046 124.144C52.5722 124.717 52.7242 125.337 52.752 125.969C52.7798 126.601 52.6827 127.232 52.4664 127.827C52.25 128.421 51.9187 128.967 51.4912 129.433C51.0638 129.899 50.5486 130.277 49.9752 130.544L49.9747 130.544C49.4016 130.812 48.7814 130.964 48.1494 130.991C47.5175 131.019 46.8863 130.922 46.292 130.706C45.6976 130.489 45.1517 130.158 44.6854 129.731C44.2192 129.303 43.8417 128.788 43.5747 128.214L43.4801 128.011L43.4779 128.007C43.0612 127.138 42.3939 126.415 41.562 125.929C40.7308 125.444 39.7733 125.218 38.813 125.282C37.8752 125.335 36.9733 125.661 36.2181 126.219C35.4622 126.778 34.8863 127.546 34.5612 128.428L34.5605 128.43L34.4071 128.852C33.9705 130.051 33.0752 131.028 31.9183 131.568C30.7614 132.107 29.4375 132.165 28.238 131.728C27.0384 131.292 26.0615 130.396 25.522 129.24C24.9825 128.083 24.9247 126.759 25.3613 125.559L25.4425 125.336L25.4461 125.326C25.7557 124.409 25.7823 123.421 25.5226 122.489C25.2642 121.562 24.7342 120.733 24.0011 120.11C23.3077 119.449 22.4329 119.009 21.4883 118.847C20.5389 118.685 19.5625 118.81 18.685 119.208L18.4772 119.305C17.9041 119.572 17.2838 119.724 16.6519 119.752C16.02 119.78 15.3888 119.683 14.7944 119.466C14.2 119.25 13.6541 118.919 13.1879 118.491C12.7217 118.064 12.3443 117.549 12.0773 116.975L12.0771 116.975C11.8094 116.402 11.6574 115.781 11.6296 115.149C11.6018 114.518 11.6989 113.886 11.9152 113.292C12.1316 112.698 12.4629 112.152 12.8904 111.685C13.3179 111.219 13.8333 110.842 14.4067 110.575L14.6097 110.48L14.6143 110.478C15.4828 110.061 16.2065 109.394 16.6921 108.562C17.1774 107.731 17.4027 106.774 17.3392 105.813C17.2863 104.875 16.9606 103.973 16.402 103.218C15.843 102.462 15.0751 101.886 14.1929 101.561L13.7695 101.407C12.5699 100.97 11.593 100.075 11.0535 98.9183C10.514 97.7614 10.4562 96.4375 10.8928 95.238C11.3294 94.0384 12.2246 93.0615 13.3815 92.522C14.5385 91.9825 15.8623 91.9247 17.0619 92.3613L17.2851 92.4425L17.2954 92.4461C18.2119 92.7556 19.2003 92.7823 20.1321 92.5226C21.0592 92.2642 21.8877 91.7342 22.5109 91.0011C23.1721 90.3077 23.6118 89.4329 23.7737 88.4883C23.9363 87.5389 23.8109 86.5625 23.4135 85.685L23.3165 85.4772C23.0489 84.904 22.8968 84.2838 22.8691 83.6519C22.8413 83.02 22.9384 82.3888 23.1547 81.7944C23.371 81.2 23.7024 80.6541 24.1299 80.1879C24.5573 79.7217 25.0725 79.3443 25.6459 79.0773L25.6464 79.0771C26.2195 78.8094 26.8397 78.6574 27.4716 78.6296C28.1035 78.6018 28.7347 78.6989 29.3291 78.9152C29.9235 79.1316 30.4694 79.4629 30.9356 79.8904C31.4018 80.3178 31.7794 80.8332 32.0464 81.4067L32.141 81.6096L32.1432 81.6143C32.5599 82.4828 33.2272 83.2065 34.0591 83.6921C34.862 84.1609 35.7826 84.3871 36.7099 84.3447L36.8185 84.3842C36.8778 84.4058 36.9408 84.4151 37.0038 84.4116C37.9425 84.3591 38.8454 84.0333 39.6014 83.4742C40.3573 82.9152 40.9332 82.1473 41.2583 81.2651L41.259 81.2633L41.4124 80.8417C41.849 79.6421 42.7443 78.6652 43.9012 78.1257Z" stroke="#845EF7" stroke-linecap="round" stroke-linejoin="round"/>
</svg>
